<mxfile host="app.diagrams.net" modified="2024-03-26T18:01:54.119Z" agent="Mozilla/5.0 (Windows NT 10.0; Win64; x64) AppleWebKit/537.36 (KHTML, like Gecko) Chrome/123.0.0.0 Safari/537.36 Edg/123.0.0.0" etag="4AeJ2dwdApbBHHMnqee8" version="24.1.0" type="device">
  <diagram name="Página-1" id="cCVUhmrMS59kCZWNnGen">
    <mxGraphModel dx="1002" dy="569" grid="1" gridSize="10" guides="1" tooltips="1" connect="1" arrows="1" fold="1" page="1" pageScale="1" pageWidth="827" pageHeight="1169" math="0" shadow="0">
      <root>
        <mxCell id="0" />
        <mxCell id="1" parent="0" />
        <mxCell id="46KAah2kyUREOhUxLwdo-4" style="rounded=0;orthogonalLoop=1;jettySize=auto;html=1;endArrow=open;endFill=0;" parent="1" source="46KAah2kyUREOhUxLwdo-1" target="46KAah2kyUREOhUxLwdo-2" edge="1">
          <mxGeometry relative="1" as="geometry" />
        </mxCell>
        <mxCell id="46KAah2kyUREOhUxLwdo-7" value="Informar Dados" style="edgeLabel;html=1;align=center;verticalAlign=middle;resizable=0;points=[];" parent="46KAah2kyUREOhUxLwdo-4" vertex="1" connectable="0">
          <mxGeometry x="0.111" relative="1" as="geometry">
            <mxPoint as="offset" />
          </mxGeometry>
        </mxCell>
        <mxCell id="46KAah2kyUREOhUxLwdo-1" value="Sócio" style="shape=umlActor;verticalLabelPosition=bottom;verticalAlign=top;html=1;" parent="1" vertex="1">
          <mxGeometry x="90" y="225" width="30" height="60" as="geometry" />
        </mxCell>
        <mxCell id="46KAah2kyUREOhUxLwdo-2" value="Consultar Sócio" style="ellipse;whiteSpace=wrap;html=1;" parent="1" vertex="1">
          <mxGeometry x="340" y="220" width="140" height="70" as="geometry" />
        </mxCell>
        <mxCell id="46KAah2kyUREOhUxLwdo-5" style="rounded=0;orthogonalLoop=1;jettySize=auto;html=1;entryX=1;entryY=0.5;entryDx=0;entryDy=0;endArrow=none;endFill=0;" parent="1" source="46KAah2kyUREOhUxLwdo-3" target="46KAah2kyUREOhUxLwdo-2" edge="1">
          <mxGeometry relative="1" as="geometry" />
        </mxCell>
        <mxCell id="46KAah2kyUREOhUxLwdo-10" value="" style="edgeStyle=none;rounded=0;orthogonalLoop=1;jettySize=auto;html=1;endArrow=none;endFill=0;" parent="1" source="46KAah2kyUREOhUxLwdo-3" target="46KAah2kyUREOhUxLwdo-8" edge="1">
          <mxGeometry relative="1" as="geometry" />
        </mxCell>
        <mxCell id="46KAah2kyUREOhUxLwdo-3" value="Atendente" style="shape=umlActor;verticalLabelPosition=bottom;verticalAlign=top;html=1;" parent="1" vertex="1">
          <mxGeometry x="660" y="225" width="30" height="60" as="geometry" />
        </mxCell>
        <mxCell id="46KAah2kyUREOhUxLwdo-8" value="Manter Filmes" style="ellipse;whiteSpace=wrap;html=1;" parent="1" vertex="1">
          <mxGeometry x="730" y="400" width="140" height="70" as="geometry" />
        </mxCell>
        <mxCell id="46KAah2kyUREOhUxLwdo-13" value="Realizar Locação" style="ellipse;whiteSpace=wrap;html=1;" parent="1" vertex="1">
          <mxGeometry x="280" y="640" width="140" height="70" as="geometry" />
        </mxCell>
        <mxCell id="46KAah2kyUREOhUxLwdo-14" style="edgeStyle=none;rounded=0;orthogonalLoop=1;jettySize=auto;html=1;endArrow=open;endFill=0;dashed=1;dashPattern=8 8;entryX=0.285;entryY=0.957;entryDx=0;entryDy=0;entryPerimeter=0;" parent="1" source="46KAah2kyUREOhUxLwdo-13" target="46KAah2kyUREOhUxLwdo-16" edge="1">
          <mxGeometry relative="1" as="geometry">
            <mxPoint x="260" y="560" as="targetPoint" />
          </mxGeometry>
        </mxCell>
        <mxCell id="46KAah2kyUREOhUxLwdo-15" value="&amp;lt;&amp;lt;extends&amp;gt;&amp;gt;" style="edgeLabel;html=1;align=center;verticalAlign=middle;resizable=0;points=[];" parent="46KAah2kyUREOhUxLwdo-14" vertex="1" connectable="0">
          <mxGeometry x="0.0705" y="-1" relative="1" as="geometry">
            <mxPoint as="offset" />
          </mxGeometry>
        </mxCell>
        <mxCell id="46KAah2kyUREOhUxLwdo-16" value="Registrar Devolução" style="ellipse;whiteSpace=wrap;html=1;" parent="1" vertex="1">
          <mxGeometry x="250" y="460" width="140" height="70" as="geometry" />
        </mxCell>
        <mxCell id="46KAah2kyUREOhUxLwdo-17" style="edgeStyle=none;rounded=0;orthogonalLoop=1;jettySize=auto;html=1;endArrow=open;endFill=0;dashed=1;dashPattern=8 8;exitX=0.5;exitY=0;exitDx=0;exitDy=0;" parent="1" source="46KAah2kyUREOhUxLwdo-16" target="46KAah2kyUREOhUxLwdo-2" edge="1">
          <mxGeometry relative="1" as="geometry">
            <mxPoint x="338" y="422" as="sourcePoint" />
            <mxPoint x="414" y="320" as="targetPoint" />
          </mxGeometry>
        </mxCell>
        <mxCell id="46KAah2kyUREOhUxLwdo-18" value="&amp;lt;&amp;lt;extends&amp;gt;&amp;gt;" style="edgeLabel;html=1;align=center;verticalAlign=middle;resizable=0;points=[];" parent="46KAah2kyUREOhUxLwdo-17" vertex="1" connectable="0">
          <mxGeometry x="0.0705" y="-1" relative="1" as="geometry">
            <mxPoint as="offset" />
          </mxGeometry>
        </mxCell>
        <mxCell id="46KAah2kyUREOhUxLwdo-20" value="Cadastrar Sócio" style="ellipse;whiteSpace=wrap;html=1;" parent="1" vertex="1">
          <mxGeometry x="440" y="480" width="140" height="70" as="geometry" />
        </mxCell>
        <mxCell id="46KAah2kyUREOhUxLwdo-21" style="edgeStyle=none;rounded=0;orthogonalLoop=1;jettySize=auto;html=1;entryX=0.659;entryY=1.01;entryDx=0;entryDy=0;entryPerimeter=0;dashed=1;dashPattern=8 8;endArrow=open;endFill=0;" parent="1" source="46KAah2kyUREOhUxLwdo-20" target="46KAah2kyUREOhUxLwdo-2" edge="1">
          <mxGeometry relative="1" as="geometry" />
        </mxCell>
        <mxCell id="46KAah2kyUREOhUxLwdo-22" value="&amp;lt;&amp;lt;extends&amp;gt;&amp;gt;" style="edgeLabel;html=1;align=center;verticalAlign=middle;resizable=0;points=[];" parent="46KAah2kyUREOhUxLwdo-21" vertex="1" connectable="0">
          <mxGeometry x="-0.1065" relative="1" as="geometry">
            <mxPoint as="offset" />
          </mxGeometry>
        </mxCell>
        <mxCell id="46KAah2kyUREOhUxLwdo-26" style="edgeStyle=none;rounded=0;orthogonalLoop=1;jettySize=auto;html=1;endArrow=none;endFill=0;dashed=1;" parent="1" source="46KAah2kyUREOhUxLwdo-25" edge="1">
          <mxGeometry relative="1" as="geometry">
            <mxPoint x="480" y="420" as="targetPoint" />
          </mxGeometry>
        </mxCell>
        <mxCell id="46KAah2kyUREOhUxLwdo-25" value="{se não estiver cadastrado}" style="shape=note2;boundedLbl=1;whiteSpace=wrap;html=1;size=25;verticalAlign=top;align=center;" parent="1" vertex="1">
          <mxGeometry x="540" y="400" width="120" height="60" as="geometry" />
        </mxCell>
        <mxCell id="46KAah2kyUREOhUxLwdo-28" style="edgeStyle=none;rounded=0;orthogonalLoop=1;jettySize=auto;html=1;dashed=1;endArrow=none;endFill=0;" parent="1" source="46KAah2kyUREOhUxLwdo-27" edge="1">
          <mxGeometry relative="1" as="geometry">
            <mxPoint x="350" y="400" as="targetPoint" />
          </mxGeometry>
        </mxCell>
        <mxCell id="46KAah2kyUREOhUxLwdo-27" value="{se possuir pendências}" style="shape=note2;boundedLbl=1;whiteSpace=wrap;html=1;size=25;verticalAlign=top;align=center;" parent="1" vertex="1">
          <mxGeometry x="130" y="340" width="120" height="60" as="geometry" />
        </mxCell>
        <mxCell id="46KAah2kyUREOhUxLwdo-30" style="edgeStyle=none;rounded=0;orthogonalLoop=1;jettySize=auto;html=1;dashed=1;endArrow=none;endFill=0;" parent="1" source="46KAah2kyUREOhUxLwdo-29" edge="1">
          <mxGeometry relative="1" as="geometry">
            <mxPoint x="300" y="560" as="targetPoint" />
          </mxGeometry>
        </mxCell>
        <mxCell id="46KAah2kyUREOhUxLwdo-29" value="{se devolveu e não possui pendências}" style="shape=note2;boundedLbl=1;whiteSpace=wrap;html=1;size=25;verticalAlign=top;align=center;" parent="1" vertex="1">
          <mxGeometry x="90" y="490" width="120" height="60" as="geometry" />
        </mxCell>
        <mxCell id="46KAah2kyUREOhUxLwdo-32" style="edgeStyle=none;rounded=0;orthogonalLoop=1;jettySize=auto;html=1;entryX=0.334;entryY=1.011;entryDx=0;entryDy=0;entryPerimeter=0;endArrow=open;endFill=0;dashed=1;dashPattern=8 8;" parent="1" source="46KAah2kyUREOhUxLwdo-13" target="46KAah2kyUREOhUxLwdo-20" edge="1">
          <mxGeometry relative="1" as="geometry" />
        </mxCell>
        <mxCell id="46KAah2kyUREOhUxLwdo-33" value="&amp;lt;&amp;lt;extends&amp;gt;&amp;gt;" style="edgeLabel;html=1;align=center;verticalAlign=middle;resizable=0;points=[];" parent="46KAah2kyUREOhUxLwdo-32" vertex="1" connectable="0">
          <mxGeometry x="0.4906" y="2" relative="1" as="geometry">
            <mxPoint x="-9" y="17" as="offset" />
          </mxGeometry>
        </mxCell>
      </root>
    </mxGraphModel>
  </diagram>
</mxfile>
